<?xml version="1.0" encoding="utf-8"?>
<!-- Generator: Adobe Illustrator 21.0.2, SVG Export Plug-In . SVG Version: 6.00 Build 0)  -->
<svg version="1.1" id="Capa_1" xmlns="http://www.w3.org/2000/svg" xmlns:xlink="http://www.w3.org/1999/xlink" x="0px" y="0px"
	 viewBox="0 0 145.5 49.6" style="enable-background:new 0 0 145.5 49.6;" xml:space="preserve">
<style type="text/css">
	.st0{fill:#FFFFFF;}
	.st1{fill:#949F14;stroke:#949F14;stroke-miterlimit:10;}
</style>
<title>boton-oferta_2</title>
<g id="Capa_2">
	<g id="Capa_1-2">
		<rect y="4.5" class="st0" width="134" height="40.6"/>
		<circle class="st1" cx="120.8" cy="24.8" r="24.3"/>
		<g>
			
				<image style="overflow:visible;opacity:0.4;" width="50" height="47" xlink:href="8B4833FE1347236B.png"  transform="matrix(1 0 0 1 98.4961 7.0961)">
			</image>
			<g>
				<g>
					<path class="st0" d="M130.7,33.2h-1v-1c-0.1-0.5-0.7-0.9-1.2-0.8c-0.4,0.1-0.7,0.4-0.8,0.8v1h-1c-0.5,0.1-0.9,0.7-0.8,1.2
						c0.1,0.4,0.4,0.7,0.8,0.8h1v1c0.1,0.5,0.7,0.9,1.2,0.8c0.4-0.1,0.7-0.4,0.8-0.8v-1h1c0.5-0.1,0.9-0.7,0.8-1.2
						C131.4,33.5,131.1,33.3,130.7,33.2z"/>
					<path class="st0" d="M131.1,27.8l1.4-8.4c0.2-1.3-0.7-2.6-2-2.8c-0.1,0-0.3,0-0.4,0h-18.6l-0.3-0.9c-0.4-1.2-1.5-2-2.8-2h-2.6
						c-0.8,0-1.5,0.7-1.5,1.5c0,0.8,0.7,1.5,1.5,1.5c0,0,0,0,0,0h2.6l4.9,14.8c0.4,1.1,1.3,2,2.4,2.5c-1,0.9-1,2.5,0,3.5
						c0.9,1,2.5,1,3.5,0c0.9-0.9,1-2.2,0.2-3.2h2.4c0,3.8,3,6.8,6.8,6.8c3.8,0,6.8-3,6.8-6.8C135.5,31.4,133.8,28.8,131.1,27.8
						L131.1,27.8z M115.1,24.4h-1L114,24l-0.1-1.5h1.2L115.1,24.4z M115.1,20.5h-1.4l-0.2-2h1.6L115.1,20.5z M128.9,18.6h1.3
						c0.3,0,0.5,0.2,0.5,0.5c0,0,0,0.1,0,0.1l-0.2,1.4h-1.7L128.9,18.6z M128.5,22.5h1.6l-0.3,2h-1.4L128.5,22.5z M129.4,26.4
						l-0.2,1h-0.6c-0.2,0-0.4,0-0.6,0l0.1-1H129.4z M124.8,18.6h2.1l-0.2,2h-1.9L124.8,18.6z M124.8,22.5h1.8l-0.2,2h-1.6V22.5z
						 M124.8,26.4h1.4l-0.1,1.5c-0.3,0.1-0.6,0.3-0.9,0.5h-0.4V26.4z M120.9,18.6h1.9v2h-1.9V18.6z M120.9,22.5h1.9v2h-1.9V22.5z
						 M120.9,26.4h1.9v2h-1.9V26.4z M117,18.6h1.9v2H117V18.6z M117,22.5h1.9v2H117V22.5z M117,26.4h1.9v2H117V26.4z M117.1,31.2
						c-0.5,0-0.9-0.3-1-0.7l-0.1-0.2h7c-0.2,0.3-0.4,0.7-0.6,1L117.1,31.2z M128.7,39c-2.7,0-4.9-2.2-4.9-4.9s2.2-4.9,4.9-4.9
						c2.7,0,4.9,2.2,4.9,4.9C133.5,36.8,131.4,39,128.7,39z"/>
				</g>
			</g>
		</g>
	</g>
</g>
</svg>
