<svg xmlns="http://www.w3.org/2000/svg" viewBox="0 0 145.54 49.6"><defs><style>.cls-1,.cls-2{fill:#fff;}.cls-2{stroke:#949f14;stroke-miterlimit:10;}.cls-3{fill:#909b14;}</style></defs><title>boton-oferta_2</title><g id="Capa_2" data-name="Capa 2"><g id="Capa_1-2" data-name="Capa 1"><rect class="cls-1" y="4.49" width="134" height="40.62"/><circle class="cls-2" cx="120.75" cy="24.8" r="24.3"/><path class="cls-3" d="M130.71,33.17h-1v-1a1,1,0,0,0-1.95,0v1h-1a1,1,0,0,0,0,1.95h1v1a1,1,0,0,0,1.95,0v-1h1a1,1,0,0,0,0-1.95Z"/><path class="cls-3" d="M131.14,27.82l1.39-8.36a2.41,2.41,0,0,0-2.38-2.81H111.5l-.31-.93a2.9,2.9,0,0,0-2.75-2h-2.63a1.46,1.46,0,1,0,0,2.92h2.61l4.93,14.8a4,4,0,0,0,2.42,2.46,2.44,2.44,0,1,0,3.65.26h2.44a6.81,6.81,0,1,0,9.28-6.34Zm-16.09-3.39h-1L114,24l-.14-1.51h1.24Zm0-3.89h-1.42l-.18-1.95h1.59Zm13.8-1.95h1.3a.47.47,0,0,1,.46.55l-.23,1.4h-1.71Zm-.35,3.89h1.56l-.32,1.95h-1.41Zm.91,3.89-.17,1-.57,0c-.21,0-.42,0-.62,0l.09-1Zm-4.63-7.78h2.11l-.18,1.95h-1.94Zm0,3.89h1.76l-.18,1.95h-1.58Zm0,3.89h1.41l-.14,1.5a6.85,6.85,0,0,0-.87.45h-.4Zm-3.89-7.78h1.95v1.95h-1.95Zm0,3.89h1.95v1.95h-1.95Zm0,3.89h1.95v1.95h-1.95ZM117,18.59h1.95v1.95H117Zm0,3.89h1.95v1.95H117Zm0,3.89h1.95v1.95H117Zm.13,4.86a1.06,1.06,0,0,1-1-.73l-.08-.25h7a6.77,6.77,0,0,0-.56,1ZM128.67,39a4.86,4.86,0,1,1,4.86-4.86A4.87,4.87,0,0,1,128.67,39Z"/></g></g></svg>